<!-- <svg width="261" height="144" viewBox="0 0 261 144" fill="none" xmlns="http://www.w3.org/2000/svg">
<path d="M90.56 0.719999C95.52 1.14666 99.8666 2.18666 103.6 3.84C107.387 5.44 110.293 7.41333 112.32 9.76C114.4 12.1067 115.84 14.64 116.64 17.36C117.44 20.0267 117.573 22.72 117.04 25.44C114.587 35.36 106.373 40.9867 92.4 42.32C94.48 43.8133 96.32 45.7333 97.92 48.08C99.5733 50.3733 100.827 52.56 101.68 54.64C102.587 56.6667 103.733 58.8533 105.12 61.2C106.507 63.5467 108 65.44 109.6 66.88C110.827 68 112.213 68.6933 113.76 68.96C115.307 69.2267 116.8 68.9067 118.24 68C120.16 66.6133 120.533 64.6933 119.36 62.24C118.24 60 116.4 58.48 113.84 57.68C111.333 56.88 108.933 57.2533 106.64 58.8C105.36 57.04 105.68 55.2267 107.6 53.36C109.733 51.3867 112.373 50.5333 115.52 50.8C118.293 51.12 120.693 52.4 122.72 54.64C124.16 56.4 124.933 58.3733 125.04 60.56C125.2 62.6933 124.747 64.7733 123.68 66.8C122.613 68.7733 121.2 70.64 119.44 72.4C117.68 74.16 115.6 75.6 113.2 76.72C110.8 77.7867 108.4 78.3733 106 78.48C103.227 78.5867 100.613 77.9733 98.16 76.64C95.7066 75.3067 93.92 73.3867 92.8 70.88C91.9466 69.0667 91.3333 66.8267 90.96 64.16C90.64 61.44 90.4533 58.96 90.4 56.72C90.3466 54.48 90.0533 52.16 89.52 49.76C88.9866 47.3067 88.1066 45.3067 86.88 43.76C86.5066 43.3867 86.1333 42.9867 85.76 42.56V41.28C89.3333 39.8933 92.3466 38.08 94.8 35.84C97.2533 33.5467 98.9866 31.1733 100 28.72C101.013 26.2133 101.467 23.6267 101.36 20.96C101.307 18.2933 100.693 15.8667 99.52 13.68C98.3466 11.44 96.6133 9.52 94.32 7.92C92.0266 6.32 89.3333 5.28 86.24 4.8C83.6266 4.37333 80.9066 4.45333 78.08 5.04C75.3066 5.57333 72.64 6.64 70.08 8.24C67.5733 9.78666 65.36 11.68 63.44 13.92C61.52 16.16 60.0533 18.9067 59.04 22.16C58.0266 25.36 57.68 28.8 58 32.48C58.16 34.08 58.4533 35.6267 58.88 37.12C59.3066 38.6133 59.8933 40 60.64 41.28C61.3866 42.56 62.2933 43.7333 63.36 44.8C64.4266 45.8667 65.6266 46.72 66.96 47.36V47.44C61.7866 48.9333 57.36 49.2 53.68 48.24C50 47.28 47.12 45.4667 45.04 42.8C43.0133 40.08 41.9466 36.88 41.84 33.2C41.7333 28.88 42.56 24.8533 44.32 21.12C46.1333 17.3333 48.6133 14.1333 51.76 11.52C54.9066 8.85333 58.56 6.61333 62.72 4.8C66.88 2.98666 71.3333 1.73333 76.08 1.04C80.88 0.346665 85.7066 0.239999 90.56 0.719999ZM85.6 64.48C83.5733 63.7867 80.8 63.4667 77.28 63.52C73.8133 63.5733 70.6133 63.9733 67.68 64.72C68.5333 62.16 69.0666 59.36 69.28 56.32C69.76 47.1467 69.8933 37.3867 69.68 27.04C69.4666 19.04 68.6933 13.8933 67.36 11.6C70.24 11.3333 73.4666 10.7733 77.04 9.92C80.6666 9.01333 83.4666 8.08 85.44 7.12C84.3733 9.89333 83.76 16.24 83.6 26.16C83.5466 29.4133 83.5466 32.8533 83.6 36.48C83.7066 44.4267 83.8133 49.76 83.92 52.48C84.1866 58.1867 84.7466 62.1867 85.6 64.48Z" fill="#09090B"/>
<path d="M157.55 49.92C157.39 51.2533 157.043 52.5333 156.51 53.76C156.03 54.9333 155.417 56.0267 154.67 57.04C153.923 58.0533 153.043 58.9867 152.03 59.84C151.07 60.6933 149.977 61.44 148.75 62.08C147.577 62.72 146.323 63.2267 144.99 63.6C139.657 65.04 134.67 64.3467 130.03 61.52C127.363 59.92 125.23 57.84 123.63 55.28C122.083 52.6667 121.123 49.9733 120.75 47.2C120.43 44.4267 120.617 41.6267 121.31 38.8C122.003 35.92 123.123 33.36 124.67 31.12C126.27 28.8267 128.377 26.9867 130.99 25.6C133.603 24.16 136.457 23.44 139.55 23.44C144.35 23.44 148.483 25.1467 151.95 28.56C155.417 31.9733 157.363 36.2133 157.79 41.28H131.39C132.723 43.8933 134.59 46.1067 136.99 47.92C139.443 49.68 142.43 50.8533 145.95 51.44C149.47 52.0267 153.337 51.52 157.55 49.92ZM130.43 28.56C129.417 28.7733 128.857 29.8133 128.75 31.68C128.643 33.4933 129.123 35.7867 130.19 38.56H140.99C139.977 35.6267 138.35 33.1467 136.11 31.12C133.87 29.0933 131.977 28.24 130.43 28.56Z" fill="#09090B"/>
<path d="M158.066 24C160.946 23.4667 163.986 22.5867 167.186 21.36C170.439 20.08 172.866 18.8 174.466 17.52V24H181.506V26.72C180.706 26.72 179.506 26.72 177.906 26.72C176.306 26.72 175.132 26.72 174.386 26.72C174.439 41.28 174.492 49.9733 174.546 52.8C174.546 55.6267 174.786 57.76 175.266 59.2C175.799 60.64 176.652 61.2533 177.826 61.04C179.426 60.5067 180.039 58.72 179.666 55.68C179.292 52.5867 178.226 50 176.466 47.92C179.559 46.3733 181.906 46.7467 183.506 49.04C184.999 51.1733 185.239 53.7333 184.226 56.72C183.052 60.2933 180.519 62.5867 176.626 63.6C175.399 63.92 174.092 64.1067 172.706 64.16C164.439 64.16 160.306 59.5733 160.306 50.4C160.306 48.96 160.306 47.04 160.306 44.64C160.359 42.1867 160.359 40.4533 160.306 39.44C160.306 38.4267 160.279 37.0667 160.226 35.36C160.226 33.6533 160.172 32.4 160.066 31.6C160.012 30.8 159.906 29.8667 159.746 28.8C159.586 27.7333 159.372 26.8533 159.106 26.16C158.839 25.4133 158.492 24.6933 158.066 24Z" fill="#09090B"/>
<path d="M201.647 34.88C201.434 36.2133 201.274 38.16 201.167 40.72C201.061 43.2267 201.034 45.8933 201.087 48.72C201.141 51.4933 201.354 54.2667 201.727 57.04C202.101 59.76 202.581 61.8667 203.167 63.36H185.007C186.234 60.6933 186.981 56.72 187.247 51.44C187.567 46.16 187.487 41.2533 187.007 36.72C186.527 32.1333 185.861 29.0667 185.007 27.52C190.607 26.9867 195.967 25.8133 201.087 24V28.16C201.461 27.5733 201.861 27.0667 202.287 26.64C204.474 24.5067 207.114 23.4667 210.207 23.52C213.194 23.6267 215.674 24.9333 217.647 27.44C219.674 29.9467 220.714 32.8 220.767 36C220.767 38.3467 220.234 40.3733 219.167 42.08C218.154 43.7333 216.847 44.9333 215.247 45.68C213.701 46.3733 211.994 46.6933 210.127 46.64C208.314 46.5333 206.634 46.0267 205.087 45.12C206.474 44.1067 207.407 42.4267 207.887 40.08C208.421 37.68 208.421 35.44 207.887 33.36C207.407 31.28 206.554 30.1333 205.327 29.92C203.567 29.5467 202.341 31.2 201.647 34.88Z" fill="#09090B"/>
<path d="M223.285 36.8C224.618 31.52 227.525 27.68 232.005 25.28C236.485 22.88 241.232 22.6133 246.245 24.48C251.312 26.3467 255.152 29.7867 257.765 34.8C260.378 39.8133 261.018 44.96 259.685 50.24C258.352 55.4667 255.445 59.28 250.965 61.68C246.485 64.08 241.712 64.3467 236.645 62.48C231.632 60.6133 227.818 57.1733 225.205 52.16C222.592 47.1467 221.952 42.0267 223.285 36.8ZM245.445 41.36C243.205 36.9333 240.885 33.44 238.485 30.88C236.138 28.32 234.405 27.3333 233.285 27.92C232.165 28.5067 232.005 30.5067 232.805 33.92C233.605 37.28 235.152 41.1733 237.445 45.6C239.738 49.9733 242.058 53.4667 244.405 56.08C246.805 58.64 248.565 59.6267 249.685 59.04C250.752 58.4533 250.885 56.4533 250.085 53.04C249.338 49.6267 247.792 45.7333 245.445 41.36Z" fill="#09090B"/>
<path d="M49.56 65.72C54.52 66.1467 58.8666 67.1867 62.6 68.84C66.3866 70.44 69.2933 72.4133 71.32 74.76C73.4 77.1067 74.84 79.64 75.64 82.36C76.44 85.0267 76.5733 87.72 76.04 90.44C73.5866 100.36 65.3733 105.987 51.4 107.32C53.48 108.813 55.32 110.733 56.92 113.08C58.5733 115.373 59.8266 117.56 60.68 119.64C61.5866 121.667 62.7333 123.853 64.12 126.2C65.5066 128.547 67 130.44 68.6 131.88C69.8266 133 71.2133 133.693 72.76 133.96C74.3066 134.227 75.8 133.907 77.24 133C79.16 131.613 79.5333 129.693 78.36 127.24C77.24 125 75.4 123.48 72.84 122.68C70.3333 121.88 67.9333 122.253 65.64 123.8C64.36 122.04 64.68 120.227 66.6 118.36C68.7333 116.387 71.3733 115.533 74.52 115.8C77.2933 116.12 79.6933 117.4 81.72 119.64C83.16 121.4 83.9333 123.373 84.04 125.56C84.2 127.693 83.7466 129.773 82.68 131.8C81.6133 133.773 80.2 135.64 78.44 137.4C76.68 139.16 74.6 140.6 72.2 141.72C69.8 142.787 67.4 143.373 65 143.48C62.2266 143.587 59.6133 142.973 57.16 141.64C54.7066 140.307 52.92 138.387 51.8 135.88C50.9466 134.067 50.3333 131.827 49.96 129.16C49.64 126.44 49.4533 123.96 49.4 121.72C49.3466 119.48 49.0533 117.16 48.52 114.76C47.9866 112.307 47.1066 110.307 45.88 108.76C45.5066 108.387 45.1333 107.987 44.76 107.56V106.28C48.3333 104.893 51.3466 103.08 53.8 100.84C56.2533 98.5467 57.9866 96.1733 59 93.72C60.0133 91.2133 60.4666 88.6267 60.36 85.96C60.3066 83.2933 59.6933 80.8667 58.52 78.68C57.3466 76.44 55.6133 74.52 53.32 72.92C51.0266 71.32 48.3333 70.28 45.24 69.8C42.6266 69.3733 39.9066 69.4533 37.08 70.04C34.3066 70.5733 31.64 71.64 29.08 73.24C26.5733 74.7867 24.36 76.68 22.44 78.92C20.52 81.16 19.0533 83.9067 18.04 87.16C17.0266 90.36 16.68 93.8 17 97.48C17.16 99.08 17.4533 100.627 17.88 102.12C18.3066 103.613 18.8933 105 19.64 106.28C20.3866 107.56 21.2933 108.733 22.36 109.8C23.4266 110.867 24.6266 111.72 25.96 112.36V112.44C20.7866 113.933 16.36 114.2 12.68 113.24C8.99995 112.28 6.11995 110.467 4.03995 107.8C2.01329 105.08 0.94662 101.88 0.839953 98.2C0.733287 93.88 1.55995 89.8533 3.31995 86.12C5.13329 82.3333 7.61329 79.1333 10.76 76.52C13.9066 73.8533 17.56 71.6133 21.72 69.8C25.88 67.9867 30.3333 66.7333 35.08 66.04C39.88 65.3467 44.7066 65.24 49.56 65.72ZM44.6 129.48C42.5733 128.787 39.8 128.467 36.28 128.52C32.8133 128.573 29.6133 128.973 26.68 129.72C27.5333 127.16 28.0666 124.36 28.28 121.32C28.76 112.147 28.8933 102.387 28.68 92.04C28.4666 84.04 27.6933 78.8933 26.36 76.6C29.24 76.3333 32.4666 75.7733 36.04 74.92C39.6666 74.0133 42.4666 73.08 44.44 72.12C43.3733 74.8933 42.76 81.24 42.6 91.16C42.5466 94.4133 42.5466 97.8533 42.6 101.48C42.7066 109.427 42.8133 114.76 42.92 117.48C43.1866 123.187 43.7466 127.187 44.6 129.48Z" fill="#09090B"/>
<path d="M82.185 101.8C83.5183 96.52 86.425 92.68 90.905 90.28C95.385 87.88 100.132 87.6133 105.145 89.48C110.212 91.3467 114.052 94.7867 116.665 99.8C119.278 104.813 119.918 109.96 118.585 115.24C117.252 120.467 114.345 124.28 109.865 126.68C105.385 129.08 100.612 129.347 95.545 127.48C90.5316 125.613 86.7183 122.173 84.1049 117.16C81.4916 112.147 80.8516 107.027 82.185 101.8ZM104.345 106.36C102.105 101.933 99.7849 98.44 97.3849 95.88C95.0383 93.32 93.305 92.3333 92.185 92.92C91.065 93.5067 90.9049 95.5067 91.7049 98.92C92.5049 102.28 94.0516 106.173 96.3449 110.6C98.6383 114.973 100.958 118.467 103.305 121.08C105.705 123.64 107.465 124.627 108.585 124.04C109.652 123.453 109.785 121.453 108.985 118.04C108.238 114.627 106.692 110.733 104.345 106.36Z" fill="#09090B"/>
<path d="M129.567 93.56C128.127 93.88 127.594 95.56 127.967 98.6C128.447 102.813 130.234 106.68 133.327 110.2C138.447 115.96 145.034 117.907 153.087 116.04L156.687 114.92C156.527 116.253 156.181 117.533 155.647 118.76C155.167 119.933 154.554 121.027 153.807 122.04C153.061 123.053 152.181 123.987 151.167 124.84C150.207 125.693 149.114 126.44 147.887 127.08C146.714 127.72 145.461 128.227 144.127 128.6C138.794 130.04 133.807 129.347 129.167 126.52C126.874 125.133 124.954 123.4 123.407 121.32C121.914 119.187 120.901 116.947 120.367 114.6C119.887 112.253 119.701 109.853 119.807 107.4C119.914 104.893 120.474 102.52 121.487 100.28C122.554 98.04 123.834 96.04 125.327 94.28C126.874 92.4667 128.821 91.0533 131.167 90.04C133.514 88.9733 136.021 88.44 138.687 88.44C142.581 88.44 145.194 89.7467 146.527 92.36C147.861 94.9733 147.834 97.6133 146.447 100.28C145.114 102.893 143.087 104.2 140.367 104.2C139.621 101.267 138.021 98.68 135.567 96.44C133.167 94.2 131.167 93.24 129.567 93.56Z" fill="#09090B"/>
<path d="M173.294 112.04C173.561 120.52 174.148 125.96 175.054 128.36H157.054C158.601 124.627 159.374 116.867 159.374 105.08C159.374 93.2933 158.601 85.7733 157.054 82.52C159.881 82.1467 163.081 81.4267 166.654 80.36C170.228 79.24 173.028 78.12 175.054 77C174.361 79.1333 173.828 83.5067 173.454 90.12C173.134 96.7333 173.054 103.427 173.214 110.2C175.348 108.813 177.241 107.4 178.894 105.96C180.601 104.467 181.961 103.08 182.974 101.8C184.041 100.52 184.894 99.2667 185.534 98.04C186.228 96.8133 186.681 95.72 186.894 94.76C187.161 93.7467 187.268 92.84 187.214 92.04C187.214 91.1867 187.081 90.4933 186.814 89.96C186.548 89.3733 186.201 88.92 185.774 88.6C186.468 87.6933 187.294 87.0267 188.254 86.6C189.268 86.1733 190.228 86.0133 191.134 86.12C192.094 86.1733 192.974 86.4667 193.774 87C194.574 87.48 195.134 88.1467 195.454 89C197.161 93.5333 193.721 99.08 185.134 105.64C185.401 106.173 186.574 108.573 188.654 112.84C190.734 117.053 192.574 120.467 194.174 123.08C195.828 125.693 197.348 127.453 198.734 128.36H178.654C179.988 126.707 179.161 122.973 176.174 117.16C175.641 116.147 174.708 114.44 173.374 112.04H173.294Z" fill="#09090B"/>
<path d="M233.056 114.92C232.896 116.253 232.55 117.533 232.016 118.76C231.536 119.933 230.923 121.027 230.176 122.04C229.43 123.053 228.55 123.987 227.536 124.84C226.576 125.693 225.483 126.44 224.256 127.08C223.083 127.72 221.83 128.227 220.496 128.6C215.163 130.04 210.176 129.347 205.536 126.52C202.87 124.92 200.736 122.84 199.136 120.28C197.59 117.667 196.63 114.973 196.256 112.2C195.936 109.427 196.123 106.627 196.816 103.8C197.51 100.92 198.63 98.36 200.176 96.12C201.776 93.8267 203.883 91.9867 206.496 90.6C209.11 89.16 211.963 88.44 215.056 88.44C219.856 88.44 223.99 90.1467 227.456 93.56C230.923 96.9733 232.87 101.213 233.296 106.28H206.896C208.23 108.893 210.096 111.107 212.496 112.92C214.95 114.68 217.936 115.853 221.456 116.44C224.976 117.027 228.843 116.52 233.056 114.92ZM205.936 93.56C204.923 93.7733 204.363 94.8133 204.256 96.68C204.15 98.4933 204.63 100.787 205.696 103.56H216.496C215.483 100.627 213.856 98.1467 211.616 96.12C209.376 94.0933 207.483 93.24 205.936 93.56Z" fill="#09090B"/>
<path d="M233.572 89C236.452 88.4667 239.492 87.5867 242.692 86.36C245.945 85.08 248.372 83.8 249.972 82.52V89H257.012V91.72C256.212 91.72 255.012 91.72 253.412 91.72C251.812 91.72 250.638 91.72 249.892 91.72C249.945 106.28 249.999 114.973 250.052 117.8C250.052 120.627 250.292 122.76 250.772 124.2C251.305 125.64 252.158 126.253 253.332 126.04C254.932 125.507 255.545 123.72 255.172 120.68C254.798 117.587 253.732 115 251.972 112.92C255.065 111.373 257.412 111.747 259.012 114.04C260.505 116.173 260.745 118.733 259.732 121.72C258.559 125.293 256.025 127.587 252.132 128.6C250.905 128.92 249.598 129.107 248.212 129.16C239.945 129.16 235.812 124.573 235.812 115.4C235.812 113.96 235.812 112.04 235.812 109.64C235.865 107.187 235.865 105.453 235.812 104.44C235.812 103.427 235.785 102.067 235.732 100.36C235.732 98.6533 235.678 97.4 235.572 96.6C235.518 95.8 235.412 94.8667 235.252 93.8C235.092 92.7333 234.878 91.8533 234.612 91.16C234.345 90.4133 233.998 89.6933 233.572 89Z" fill="#09090B"/>
</svg> -->

<svg viewBox="0 0 80 80" fill="none" role="img" xmlns="http://www.w3.org/2000/svg" width="80" height="80">
    <mask id=":r7f:" maskUnits="userSpaceOnUse" x="0" y="0" width="80" height="80">
        <rect width="80" height="80" rx="160" fill="#FFFFFF"></rect>
    </mask>
    <g mask="url(#:r7f:)">
        <rect width="80" height="80" fill="#ff7d10"></rect>
        <path filter="url(#filter_:r7f:)" d="M32.414 59.35L50.376 70.5H72.5v-71H33.728L26.5 13.381l19.057 27.08L32.414 59.35z" fill="#ffb238" transform="translate(-6 6) rotate(-6 40 40) scale(1.3)"></path>
        <path filter="url(#filter_:r7f:)" d="M22.216 24L0 46.75l14.108 38.129L78 86l-3.081-59.276-22.378 4.005 12.972 20.186-23.35 27.395L22.215 24z" fill="#0a0310" transform="translate(-5 5) rotate(-189 40 40) scale(1.3)" style="mix-blend-mode: overlay;"></path>
    </g>
    <defs>
        <filter id="filter_:r7f:" filterUnits="userSpaceOnUse" color-interpolation-filters="sRGB">
            <feFlood flood-opacity="0" result="BackgroundImageFix"></feFlood>
            <feBlend in="SourceGraphic" in2="BackgroundImageFix" result="shape"></feBlend>
            <feGaussianBlur stdDeviation="7" result="effect1_foregroundBlur"></feGaussianBlur>
        </filter>
    </defs>
</svg>
